<?xml version="1.0" encoding="UTF-8"?>
<svg width="48px" height="48px" version="1.1" xmlns="http://www.w3.org/2000/svg" xmlns:xlink="http://www.w3.org/1999/xlink">
 <defs>
  <radialGradient id="g" cx="17.813" cy="14.729" r="9.5" gradientTransform="matrix(0 -1 .63158 0 2.608 38.295)" gradientUnits="userSpaceOnUse">
   <stop stop-color="#eeeeec" offset="0"/>
   <stop stop-color="#eeeeec" offset="1"/>
  </radialGradient>
  <radialGradient id="b" cx="11.156" cy="2.0625" r=".90625" gradientTransform="matrix(1 0 0 .62069 0 .78233)" gradientUnits="userSpaceOnUse">
   <stop stop-color="#fff" offset="0"/>
   <stop stop-color="#fff" stop-opacity="0" offset="1"/>
  </radialGradient>
  <radialGradient id="f" cx="24.572" cy="41.636" r="21.39" gradientTransform="matrix(1 0 0 .19835 0 33.378)" gradientUnits="userSpaceOnUse" xlink:href="#s"/>
  <linearGradient id="s">
   <stop offset="0"/>
   <stop stop-opacity="0" offset="1"/>
  </linearGradient>
  <linearGradient id="q" x1="13.819" x2="36.228" y1="30.03" y2="45.195" gradientTransform="matrix(0 .67369 -.67614 0 37.102 14.816)" gradientUnits="userSpaceOnUse">
   <stop stop-color="#babdb6" offset="0"/>
   <stop stop-color="#eeeeec" offset="1"/>
  </linearGradient>
  <linearGradient id="c" x1="17" x2="17" y1="45.248" y2="30.759" gradientTransform="matrix(0 .625 -.67614 0 37.102 15.875)" gradientUnits="userSpaceOnUse" xlink:href="#r"/>
  <linearGradient id="r">
   <stop offset="0"/>
   <stop stop-color="#888a85" stop-opacity="0" offset="1"/>
  </linearGradient>
  <linearGradient id="a" x1="15.406" x2="16.865" y1="37.344" y2="24.25" gradientTransform="matrix(0 .67369 -.67614 0 37.102 14.816)" gradientUnits="userSpaceOnUse" xlink:href="#t"/>
  <linearGradient id="t">
   <stop stop-color="#fff" offset="0"/>
   <stop stop-color="#fff" stop-opacity="0" offset="1"/>
  </linearGradient>
  <linearGradient id="p" x1="33.12" x2="22.328" y1="20.5" y2="20.5" gradientTransform="matrix(.72727 0 0 1 12.273 -34.844)" gradientUnits="userSpaceOnUse">
   <stop stop-color="#888a85" offset="0"/>
   <stop stop-color="#888a85" stop-opacity="0" offset="1"/>
  </linearGradient>
  <linearGradient id="o" x1="33.259" x2="32.347" y1="45.029" y2="32.298" gradientTransform="matrix(0 .67369 -.67614 0 37.102 14.816)" gradientUnits="userSpaceOnUse">
   <stop stop-color="#729fcf" offset="0"/>
   <stop stop-color="#fff" offset="1"/>
  </linearGradient>
  <linearGradient id="n" x1="7.9505" x2="13.654" y1="36.095" y2="33.391" gradientUnits="userSpaceOnUse">
   <stop stop-color="#3465a4" offset="0"/>
   <stop stop-color="#729fcf" offset="1"/>
  </linearGradient>
  <linearGradient id="m" x1="33.12" x2="22.328" y1="20.5" y2="20.5" gradientTransform="matrix(.72727 0 0 1 12.273 -34.844)" gradientUnits="userSpaceOnUse">
   <stop stop-color="#729fcf" offset="0"/>
   <stop stop-color="#729fcf" stop-opacity="0" offset="1"/>
  </linearGradient>
  <linearGradient id="l" x1="1.6736" x2="47.084" y1="24.765" y2="45.634" gradientTransform="matrix(0 .67369 -.67614 0 37.102 14.816)" gradientUnits="userSpaceOnUse">
   <stop stop-color="#fcaf3e" offset="0"/>
   <stop stop-color="#fff6a1" offset=".48735"/>
   <stop stop-color="#fcaf3e" offset="1"/>
  </linearGradient>
  <linearGradient id="k" x1="9.1726" x2="19.208" y1="35.542" y2="33.578" gradientUnits="userSpaceOnUse">
   <stop stop-color="#ce5c00" offset="0"/>
   <stop stop-color="#f57900" offset="1"/>
  </linearGradient>
  <linearGradient id="j" x1="17" x2="17" y1="45.248" y2="30.759" gradientTransform="matrix(0 .625 -.67614 0 37.102 15.875)" gradientUnits="userSpaceOnUse">
   <stop stop-color="#f57900" offset="0"/>
   <stop stop-color="#f57900" stop-opacity="0" offset="1"/>
  </linearGradient>
  <linearGradient id="i" x1="33.12" x2="22.328" y1="20.5" y2="20.5" gradientTransform="matrix(.72727 0 0 1 12.273 -34.844)" gradientUnits="userSpaceOnUse">
   <stop stop-color="#ce5c00" offset="0"/>
   <stop stop-color="#ce5c00" stop-opacity="0" offset="1"/>
  </linearGradient>
  <radialGradient id="e" cx="23.681" cy="5.3415" r="5.0552" gradientTransform="matrix(-.19078 1.5923 -1.4346 1.1803 15.218 -19.516)" gradientUnits="userSpaceOnUse">
   <stop stop-color="#eeeeec" offset="0"/>
   <stop stop-color="#babdb6" offset="1"/>
  </radialGradient>
  <radialGradient id="d" cx="24.091" cy="5.053" r="4.4922" gradientTransform="matrix(-.36299 -1.6372 1.8501 -2.1525 1.7478 74.825)" gradientUnits="userSpaceOnUse">
   <stop stop-color="#fff" offset="0"/>
   <stop stop-color="#eeeeec" offset="1"/>
  </radialGradient>
  <linearGradient id="h" x1="20.723" x2="22.697" y1="16.83" y2="15.894" gradientTransform="matrix(-.23598 -1.1304 .63736 -.91543 7.1986 53.315)" gradientUnits="userSpaceOnUse">
   <stop offset="0"/>
   <stop stop-opacity="0" offset="1"/>
  </linearGradient>
 </defs>
 <g transform="translate(.29519 .30025)" enable-background="new">
  <path d="m13.078 14.014c0.52105 2.496-1.4832 8.0077-4.4737 12.303-2.9905 4.2952-5.8405 5.7554-6.3615 3.2595" fill="none" stroke="#babdb6" stroke-dashoffset=".7" stroke-linecap="round" stroke-width="3"/>
  <path d="m6.7167 17.273c2.9905-4.2952 5.8405-5.7554 6.3615-3.2595 0.52105 2.496-1.4832 8.0077-4.4737 12.303-2.9905 4.2952-5.8405 5.7554-6.3615 3.2595-0.52105-2.496 1.4832-8.0077 4.4737-12.303z" fill="none" stroke="url(#g)" stroke-dashoffset=".7" stroke-linecap="round"/>
  <path transform="matrix(0 -1.1034 1.7778 0 6.6698 35.658)" d="m12.062 2.0625c0 0.31066-0.40574 0.5625-0.90625 0.5625s-0.90625-0.25184-0.90625-0.5625 0.40574-0.5625 0.90625-0.5625 0.90625 0.25184 0.90625 0.5625z" enable-background="accumulate" fill="url(#b)" fill-rule="evenodd"/>
  <g fill="url(#f)" opacity=".82174">
   <path transform="matrix(1.073 0 0 1.3542 -2.2853 -15.78)" d="m45.962 41.636c0 2.3431-9.5766 4.2426-21.39 4.2426-11.813 0-21.39-1.8995-21.39-4.2426 0-2.3431 9.5766-4.2426 21.39-4.2426 11.813 0 21.39 1.8995 21.39 4.2426z" opacity=".15217"/>
   <path transform="matrix(.49743 0 0 .66179 14.623 12.732)" d="m45.962 41.636c0 2.3431-9.5766 4.2426-21.39 4.2426-11.813 0-21.39-1.8995-21.39-4.2426 0-2.3431 9.5766-4.2426 21.39-4.2426 11.813 0 21.39 1.8995 21.39 4.2426z" opacity=".15217"/>
  </g>
  <g transform="matrix(1.096 -.63279 .63279 1.096 -15.037 -.7802)">
   <path d="m13.438 16.5c-3.9189-1e-6 -7.0938 3.1578-7.0938 7.0625 2e-7 2.8182 1.6046 5.3006 4 6.4375v1.5l1.5 1.5-1.5 1.5v1l2 1v1l-2 1v1l1.5 1.5-1.5 1.5v1l2.5 2h2.5l1-1.5v-14c2.3724-1.1454 4-3.6985 4-6.5 0-3.9047-2.9874-7-6.9062-7zm-0.09375 2c1.104 0 2 0.896 2 2s-0.896 2-2 2-2-0.896-2-2 0.896-2 2-2z" fill="url(#q)" fill-rule="evenodd" stroke="#888a85" stroke-linecap="round" stroke-width=".79015"/>
   <path d="m18.847 24h-10.818c0 2.76 2.4233 5 5.4091 5s5.4091-2.24 5.4091-5z" fill="url(#c)" fill-rule="evenodd" opacity=".3"/>
   <path d="m13.438 17.281c-3.5017-1e-6 -6.3125 2.7975-6.3125 6.2812 2e-7 2.5234 1.4414 4.7433 3.5625 5.75a0.77671 0.77671 0 0 1 0.4375 0.6875v1.1562l1.2812 1.2812a0.77671 0.77671 0 0 1 0 1.125l-1.2812 1.2812v0.1875l1.5625 0.78125a0.77671 0.77671 0 0 1 0.4375 0.6875v1a0.77671 0.77671 0 0 1-0.4375 0.6875l-1.5625 0.78125v0.1875l1.2812 1.2812a0.77671 0.77671 0 0 1 0 1.125l-1.2812 1.2812v0.28125l2 1.5938h1.7812l0.65625-0.96875v-13.75a0.77671 0.77671 0 0 1 0.4375-0.6875c2.0908-1.0094 3.5625-3.3118 3.5625-5.8125 0-3.5086-2.6151-6.2188-6.125-6.2188zm-0.09375 0.4375c1.5242 0 2.7812 1.257 2.7812 2.7812s-1.257 2.7812-2.7812 2.7812-2.7812-1.257-2.7812-2.7812 1.257-2.7812 2.7812-2.7812z" fill="none" stroke="#fff" stroke-linecap="round" stroke-width=".79015" xlink:href="#path1884"/>
   <path d="m13.406 17.625c-0.21871 0.0043-0.46656 0.03416-0.6875 0.0625-0.93254 0.11963-1.7759 0.46027-2.5312 0.9375 0.17364 0.63482 0.42464 1.1581 0.71875 1.625 0.12595-1.3194 1.2419-2.3438 2.5938-2.3438 1.4361 0 2.5938 1.1577 2.5938 2.5938 0 1.4361-1.1577 2.5938-2.5938 2.5938-0.07717 0-0.14697-0.02119-0.21875-0.03125 1.0593 1.2703 2.0219 2.9443 2.2812 6.0938 2.2662-0.90904 3.875-2.9256 3.875-5.5938-0.08555-2.6019-1.5415-4.6114-4-5.625-0.68015-0.22533-1.3636-0.32575-2.0312-0.3125zm1.9688 17.062c-0.27944 2.5856-0.85456 5.742-1.8125 9.6875h1.1562l0.65625-1.3125v-8.375z" fill="url(#a)" fill-rule="evenodd" opacity=".6"/>
   <rect transform="rotate(90)" x="29" y="-14.844" width="16.312" height=".98129" fill="url(#p)" fill-rule="evenodd" opacity=".61538"/>
  </g>
  <path d="m14.312 7.0625c-1.0853 0.024816-2.1891 0.25821-3.25 0.6875-1.793 1.1839-3.1978 3.0183-3.8125 5.3125-1.3515 5.044 1.6273 10.215 6.6562 11.562 3.2888 0.88123 6.6244-0.08211 8.9375-2.2812l-0.34375-0.59375c1.809-2.9124 1.9405-6.793 0.125-9.9375-1.7967-3.112-5.0066-4.8256-8.3125-4.75zm-2 4.2188c0.76477-0.09561 1.5582 0.2577 1.9688 0.96875 0.27882 0.48292 0.32795 1.0357 0.1875 1.5312 0.17845 0.41124 0.21839 0.8786 0.09375 1.3438-0.29326 1.0945-1.4368 1.762-2.5312 1.4688-1.0945-0.29326-1.7308-1.4368-1.4375-2.5312 0.01887-0.07043 0.06817-0.12086 0.09375-0.1875-0.0033-0.0098 0.0031-0.02144 0-0.03125-0.27439-0.86599 0.05473-1.8389 0.875-2.3125 0.23702-0.13684 0.49508-0.21813 0.75-0.25z" fill-rule="evenodd" opacity=".1087"/>
  <g transform="matrix(.32756 -1.2225 1.2225 .32756 -16.854 23.192)">
   <path d="m13.438 16.5c-3.9189-1e-6 -7.0938 3.1578-7.0938 7.0625 2e-7 2.8182 1.6046 5.3006 4 6.4375v1.5l1.5 1.5-1.5 1.5v1l2 1v1l-2 1v1l1.5 1.5-1.5 1.5v1l2.5 2h2.5l1-1.5v-14c2.3724-1.1454 4-3.6985 4-6.5 0-3.9047-2.9874-7-6.9062-7zm-0.09375 2c1.104 0 2 0.896 2 2s-0.896 2-2 2-2-0.896-2-2 0.896-2 2-2z" fill="url(#o)" fill-rule="evenodd" stroke="url(#n)" stroke-linecap="round" stroke-width=".79015"/>
   <path d="m18.847 24h-10.818c0 2.76 2.4233 5 5.4091 5s5.4091-2.24 5.4091-5z" fill="url(#c)" fill-rule="evenodd" opacity=".3"/>
   <path d="m13.438 17.281c-3.5017-1e-6 -6.3125 2.7975-6.3125 6.2812 2e-7 2.5234 1.4414 4.7433 3.5625 5.75a0.77671 0.77671 0 0 1 0.4375 0.6875v1.1562l1.2812 1.2812a0.77671 0.77671 0 0 1 0 1.125l-1.2812 1.2812v0.1875l1.5625 0.78125a0.77671 0.77671 0 0 1 0.4375 0.6875v1a0.77671 0.77671 0 0 1-0.4375 0.6875l-1.5625 0.78125v0.1875l1.2812 1.2812a0.77671 0.77671 0 0 1 0 1.125l-1.2812 1.2812v0.28125l2 1.5938h1.7812l0.65625-0.96875v-13.75a0.77671 0.77671 0 0 1 0.4375-0.6875c2.0908-1.0094 3.5625-3.3118 3.5625-5.8125 0-3.5086-2.6151-6.2188-6.125-6.2188zm-0.09375 0.4375c1.5242 0 2.7812 1.257 2.7812 2.7812s-1.257 2.7812-2.7812 2.7812-2.7812-1.257-2.7812-2.7812 1.257-2.7812 2.7812-2.7812z" fill="none" stroke="#fff" stroke-linecap="round" stroke-width=".79015" xlink:href="#path1884"/>
   <path d="m13.406 17.625c-0.21871 0.0043-0.46656 0.03416-0.6875 0.0625-0.93254 0.11963-1.7759 0.46027-2.5312 0.9375 0.17364 0.63482 0.42464 1.1581 0.71875 1.625 0.12595-1.3194 1.2419-2.3438 2.5938-2.3438 1.4361 0 2.5938 1.1577 2.5938 2.5938 0 1.4361-1.1577 2.5938-2.5938 2.5938-0.07717 0-0.14697-0.02119-0.21875-0.03125 1.0593 1.2703 2.0219 2.9443 2.2812 6.0938 2.2662-0.90904 3.875-2.9256 3.875-5.5938-0.08555-2.6019-1.5415-4.6114-4-5.625-0.68015-0.22533-1.3636-0.32575-2.0312-0.3125zm1.9688 17.062c-0.27944 2.5856-0.85456 5.742-1.8125 9.6875h1.1562l0.65625-1.3125v-8.375z" fill="url(#a)" fill-rule="evenodd" opacity=".6"/>
   <rect transform="rotate(90)" x="29" y="-14.844" width="16.312" height=".98129" fill="url(#m)" fill-rule="evenodd" opacity=".61538"/>
  </g>
  <path d="m15.875 5.2188c-3.9747 0.11398-7.528 2.7496-8.625 6.8438-0.1125 0.41987-0.16481 0.8306-0.21875 1.25 0.017549 0.73166 0.1125 1.4723 0.3125 2.2188 1.3537 5.0521 6.5253 8.0685 11.562 6.7188 3.5024-0.93846 6.0903-3.731 6.8438-7.0625l1.5625-0.4375c0.1297-0.03775 0.24845-0.09981 0.3125-0.21875l0.625-1.1562-2.7188-0.71875c-0.76668-3.3229-3.3847-6.1585-6.875-7.0938-0.9401-0.2519-1.864-0.37005-2.7812-0.34375zm-3.1875 6.3125c0.13624 0.0081 0.30069 0.02584 0.4375 0.0625 0.884 0.23687 1.458 1.037 1.5 1.9062 0.02217 0.05995 0.04559 0.12438 0.0625 0.1875 0.29106 1.0862-0.32 2.1777-1.4062 2.4688s-2.1777-0.35125-2.4688-1.4375c-0.01656-0.06179-0.02057-0.12582-0.03125-0.1875-0.22878-0.44026-0.32558-0.95343-0.1875-1.4688 0.25661-0.95767 1.14-1.5878 2.0938-1.5312z" fill-rule="evenodd" opacity=".06087"/>
  <g transform="matrix(-.32756 -1.2225 1.2225 -.32756 -7.9436 36.23)">
   <path d="m13.438 16.5c-3.9189-1e-6 -7.0938 3.1578-7.0938 7.0625 2e-7 2.8182 1.6046 5.3006 4 6.4375v1.5l1.5 1.5-1.5 1.5v1l2 1v1l-2 1v1l1.5 1.5-1.5 1.5v1l2.5 2h2.5l1-1.5v-14c2.3724-1.1454 4-3.6985 4-6.5 0-3.9047-2.9874-7-6.9062-7zm-0.09375 2c1.104 0 2 0.896 2 2s-0.896 2-2 2-2-0.896-2-2 0.896-2 2-2z" fill="url(#l)" fill-rule="evenodd" stroke="url(#k)" stroke-linecap="round" stroke-width=".79015"/>
   <path d="m18.847 24h-10.818c0 2.76 2.4233 5 5.4091 5s5.4091-2.24 5.4091-5z" fill="url(#j)" fill-rule="evenodd" opacity=".58261"/>
   <path d="m13.438 17.281c-3.5017-1e-6 -6.3125 2.7975-6.3125 6.2812 2e-7 2.5234 1.4414 4.7433 3.5625 5.75a0.77671 0.77671 0 0 1 0.4375 0.6875v1.1562l1.2812 1.2812a0.77671 0.77671 0 0 1 0 1.125l-1.2812 1.2812v0.1875l1.5625 0.78125a0.77671 0.77671 0 0 1 0.4375 0.6875v1a0.77671 0.77671 0 0 1-0.4375 0.6875l-1.5625 0.78125v0.1875l1.2812 1.2812a0.77671 0.77671 0 0 1 0 1.125l-1.2812 1.2812v0.28125l2 1.5938h1.7812l0.65625-0.96875v-13.75a0.77671 0.77671 0 0 1 0.4375-0.6875c2.0908-1.0094 3.5625-3.3118 3.5625-5.8125 0-3.5086-2.6151-6.2188-6.125-6.2188zm-0.09375 0.4375c1.5242 0 2.7812 1.257 2.7812 2.7812s-1.257 2.7812-2.7812 2.7812-2.7812-1.257-2.7812-2.7812 1.257-2.7812 2.7812-2.7812z" fill="none" stroke="#fff" stroke-linecap="round" stroke-width=".79015" xlink:href="#path1884"/>
   <path d="m13.406 17.625c-0.21871 0.0043-0.46656 0.03416-0.6875 0.0625-0.93254 0.11963-1.7759 0.46027-2.5312 0.9375 0.17364 0.63482 0.42464 1.1581 0.71875 1.625 0.12595-1.3194 1.2419-2.3438 2.5938-2.3438 1.4361 0 2.5938 1.1577 2.5938 2.5938 0 1.4361-1.1577 2.5938-2.5938 2.5938-0.07717 0-0.14697-0.02119-0.21875-0.03125 1.0593 1.2703 2.0219 2.9443 2.2812 6.0938 2.2662-0.90904 3.875-2.9256 3.875-5.5938-0.08555-2.6019-1.5415-4.6114-4-5.625-0.68015-0.22533-1.3636-0.32575-2.0312-0.3125zm1.9688 17.062c-0.27944 2.5856-0.85456 5.742-1.8125 9.6875h1.1562l0.65625-1.3125v-8.375z" fill="url(#a)" fill-rule="evenodd" opacity=".6"/>
   <rect transform="rotate(90)" x="29" y="-14.844" width="16.312" height=".98129" fill="url(#i)" fill-rule="evenodd" opacity=".61538"/>
  </g>
  <path d="m4.8047 30.321c-2.5941 1.5901-3.4201-0.93903-1.8436-5.6454s4.9612-9.8166 7.5554-11.407c1.2872-0.78904 2.113-0.64357 2.4787 0.43671" fill="none" stroke="url(#e)" stroke-dashoffset=".7" stroke-linecap="round" stroke-width="3"/>
  <path transform="matrix(0 -1.5911 2.5635 0 -2.9277 44.524)" d="m12.062 2.0625c0 0.31066-0.40574 0.5625-0.90625 0.5625s-0.90625-0.25184-0.90625-0.5625 0.40574-0.5625 0.90625-0.5625 0.90625 0.25184 0.90625 0.5625z" enable-background="accumulate" fill="url(#b)" fill-rule="evenodd"/>
  <path d="m7.7427 27.481c-3.0352 3.8504-5.5354 4.4277-5.5807 1.2886s2.3812-8.8116 5.4165-12.662c2.9889-3.7916 5.461-4.4223 5.5772-1.4228" fill="none" stroke="url(#d)" stroke-dashoffset=".7" stroke-linecap="round"/>
  <path d="m7.578 16.109c2.9891-3.7921 5.4614-4.4231 5.5777-1.4234" fill="none" opacity=".10407" stroke="url(#h)" stroke-dashoffset=".7" stroke-linecap="round"/>
  <path transform="matrix(0 -1.1034 1.7778 0 -1.2851 38.995)" d="m12.062 2.0625c0 0.31066-0.40574 0.5625-0.90625 0.5625s-0.90625-0.25184-0.90625-0.5625 0.40574-0.5625 0.90625-0.5625 0.90625 0.25184 0.90625 0.5625z" enable-background="accumulate" fill="#fff" fill-rule="evenodd"/>
 </g>
</svg>
